<svg width="31" height="32" viewBox="0 0 31 32" fill="none" xmlns="http://www.w3.org/2000/svg">
<path fill-rule="evenodd" clip-rule="evenodd" d="M4.19792 8.4898C4.79578 8.4898 5.36446 8.36341 5.87924 8.13563C6.94696 7.66318 8.19159 7.29721 9.23942 7.81227L9.96441 8.16865C10.67 8.51546 10.9792 9.33628 10.9792 10.1224C10.9792 10.6428 10.7492 11.1616 10.2875 11.4014L9.10391 12.016C7.96204 12.6089 6.58039 12.269 5.3434 11.9151C4.97928 11.8109 4.59504 11.7551 4.19792 11.7551C1.87947 11.7551 0 13.6556 0 16C0 18.3444 1.87947 20.2449 4.19792 20.2449C4.74436 20.2449 5.26641 20.1393 5.74522 19.9472C6.82031 19.516 8.04567 19.1658 9.09619 19.6538L10.0067 20.0769C10.672 20.3859 10.9792 21.144 10.9792 21.8776C10.9792 22.4528 10.7286 23.0314 10.2152 23.291L9.09978 23.855C7.98209 24.4201 6.64226 24.0777 5.44767 23.7015C5.05291 23.5772 4.63315 23.5102 4.19792 23.5102C1.87947 23.5102 0 25.4107 0 27.7551C0 30.0995 1.87947 32 4.19792 32C6.51636 32 8.39583 30.0995 8.39583 27.7551C8.39583 27.0169 8.68949 26.2528 9.34824 25.9198L10.133 25.523C11.1998 24.9836 12.479 25.347 13.5829 25.8056C14.0744 26.0098 14.6127 26.1224 15.1771 26.1224C17.4955 26.1224 19.375 24.2219 19.375 21.8776C19.375 21.3023 19.6256 20.7236 20.139 20.464L21.4042 19.8243C22.6779 19.1803 24.2163 19.6435 25.5807 20.0624C25.9672 20.1811 26.3773 20.2449 26.8021 20.2449C29.1205 20.2449 31 18.3444 31 16C31 13.6556 29.1205 11.7551 26.8021 11.7551C26.6066 11.7551 26.4143 11.7686 26.2259 11.7948C24.7079 12.0054 23.0562 12.4255 21.6808 11.7495L19.7805 10.8154C19.5212 10.6879 19.375 10.4114 19.375 10.1224C19.375 7.77806 17.4955 5.87755 15.1771 5.87755C14.7699 5.87755 14.3763 5.93617 14.004 6.04551C12.8052 6.3976 11.4734 6.73201 10.3521 6.18083L9.13258 5.58136C8.64131 5.33987 8.39583 4.79232 8.39583 4.2449C8.39583 1.90051 6.51636 0 4.19792 0C1.87947 0 0 1.90051 0 4.2449C0 6.58929 1.87947 8.4898 4.19792 8.4898ZM10.3636 18.0866C11.44 18.5867 12.6957 18.2484 13.8173 17.8603C14.2438 17.7127 14.7012 17.6327 15.1771 17.6327C15.6019 17.6327 16.0119 17.6965 16.3984 17.8151C17.7628 18.234 19.3012 18.6972 20.575 18.0532L21.8402 17.4134C22.3536 17.1539 22.6042 16.5753 22.6042 16C22.6042 15.1369 22.2804 14.2226 21.5058 13.8418L20.7577 13.4741C19.5746 12.8926 18.1604 13.3919 16.9713 13.9612C16.4273 14.2216 15.819 14.3673 15.1771 14.3673C14.5852 14.3673 14.0219 14.2435 13.5112 14.02C12.4136 13.5396 11.1261 13.1683 10.0629 13.7205L9.37247 14.079C8.69098 14.4328 8.39583 15.2321 8.39583 16C8.39583 16.6467 8.67951 17.3042 9.26597 17.5766L10.3636 18.0866Z" fill="#2BD180"/>
</svg>
