<svg width="35" height="35" viewBox="0 0 35 35" fill="none" xmlns="http://www.w3.org/2000/svg">
<path d="M21.4444 9.8889C21.4444 9.8889 22.7978 9.22223 17.8889 9.22223C16.1308 9.22223 14.4123 9.74355 12.9505 10.7203C11.4887 11.697 10.3494 13.0853 9.67663 14.7095C9.00385 16.3337 8.82782 18.121 9.1708 19.8453C9.51378 21.5695 10.3604 23.1534 11.6035 24.3965C12.8466 25.6396 14.4305 26.4862 16.1548 26.8292C17.879 27.1722 19.6663 26.9962 21.2905 26.3234C22.9148 25.6506 24.303 24.5113 25.2797 23.0495C26.2565 21.5877 26.7778 19.8692 26.7778 18.1111" stroke="white" stroke-width="3" stroke-miterlimit="10" stroke-linecap="square"/>
<path d="M17.8889 5L22.3334 9.44444L17.8889 13.8889" stroke="white" stroke-width="3" stroke-linecap="square"/>
</svg>
